<svg height="512pt" viewBox="-73 0 512 512" width="512pt" xmlns="http://www.w3.org/2000/svg"><path d="m358.554688 382.101562c-4.144532 0-7.507813 3.363282-7.507813 7.507813v7.753906c0 25.753907-20.949219 46.707031-46.703125 46.707031-4.148438 0-7.507812 3.359376-7.507812 7.503907 0 4.148437 3.359374 7.507812 7.507812 7.507812 5.667969 0 11.15625-.78125 16.371094-2.21875v47.628907c0 4.148437 3.363281 7.507812 7.507812 7.507812 4.148438 0 7.507813-3.359375 7.507813-7.507812v-54.015626c18.140625-10.761718 30.332031-30.535156 30.332031-53.113281v-7.753906c0-4.144531-3.359375-7.507813-7.507812-7.507813zm0 0"/><path d="m340.195312 225.757812c-4.183593 0-8.136718 1.003907-11.636718 2.773438-2.828125-11.210938-13-19.539062-25.078125-19.539062-3.875 0-7.550781.863281-10.851563 2.394531v-10.851563c0-14.261718-11.605468-25.863281-25.867187-25.863281s-25.867188 11.601563-25.867188 25.863281v2.074219c-3.300781-1.535156-6.976562-2.394531-10.851562-2.394531-14.261719 0-25.867188 11.601562-25.867188 25.863281v40.53125c-5.789062-4.105469-12.851562-6.53125-20.472656-6.53125-8.957031 0-16.246094 7.289063-16.246094 16.246094v121.039062c0 22.578125 12.195313 42.351563 30.335938 53.113281v54.015626c0 4.148437 3.359375 7.507812 7.503906 7.507812 4.148437 0 7.507813-3.359375 7.507813-7.507812v-47.628907c5.21875 1.4375 10.707031 2.21875 16.375 2.21875 4.144531 0 7.507812-3.359375 7.507812-7.507812 0-4.144531-3.363281-7.503907-7.507812-7.503907-25.753907 0-46.707032-20.953124-46.707032-46.707031v-121.039062c0-.679688.550782-1.230469 1.230469-1.230469 11.289063 0 20.472656 9.183594 20.472656 20.472656v34.28125c0 4.148438 3.363281 7.507813 7.507813 7.507813 4.148437 0 7.507812-3.359375 7.507812-7.507813v-103.769531c0-5.980469 4.867188-10.851563 10.851563-10.851563s10.851562 4.871094 10.851562 10.851563v103.769531c0 4.148438 3.363281 7.507813 7.507813 7.507813 4.144531 0 7.507812-3.359375 7.507812-7.507813v-129.3125c0-5.980468 4.867188-10.851562 10.851563-10.851562s10.851562 4.871094 10.851562 10.851562v129.3125c0 4.148438 3.359375 7.507813 7.507813 7.507813 4.144531 0 7.507812-3.359375 7.507812-7.507813v-94.988281c0-5.984375 4.867188-10.851563 10.851563-10.851563s10.851562 4.867188 10.851562 10.851563v94.988281c0 4.148438 3.359375 7.507813 7.507813 7.507813 4.144531 0 7.503906-3.359375 7.503906-7.507813v-78.222656c0-5.984375 4.871094-10.851562 10.851562-10.851562 5.984376 0 10.851563 4.867187 10.851563 10.851562v107.957031c0 4.144531 3.363281 7.507813 7.507813 7.507813 4.148437 0 7.507812-3.363282 7.507812-7.507813v-107.960937c0-14.261719-11.601562-25.863282-25.867188-25.863282zm0 0"/><path d="m172.667969 442.433594h-110.605469l.078125-354.347656h124.917969c4.144531 0 7.507812-3.359376 7.507812-7.507813 0-4.144531-3.363281-7.507813-7.507812-7.507813h-143.015625c-16.007813 0-29.027344-13.019531-29.027344-29.027343 0-16.007813 13.019531-29.027344 29.027344-29.027344h237.230469v21.128906l-151.675782-1.109375c-.019531 0-.035156 0-.054687 0-4.121094 0-7.476563 3.324219-7.507813 7.453125-.027344 4.144531 3.308594 7.53125 7.453125 7.5625 1.378907.007813 120.535157.878907 151.785157 1.109375v21.910156h-64.1875c-4.144532 0-7.507813 3.363282-7.507813 7.507813 0 4.148437 3.363281 7.507813 7.507813 7.507813h64.1875v74.574218c0 4.144532 3.363281 7.507813 7.507812 7.507813 4.148438 0 7.507812-3.363281 7.507812-7.507813v-148.082031c0-8.039063-6.539062-14.578125-14.574218-14.578125h-237.671875c-24.285157 0-44.042969 19.757812-44.042969 44.042969 0 .113281.0078125.222656.0078125.332031 0 .058594-.0078125.113281-.0078125.167969v383.039062c0 16.46875 13.394531 29.863281 29.863281 29.863281h142.804688c4.148437 0 7.507812-3.359374 7.507812-7.507812 0-4.144531-3.359375-7.503906-7.507812-7.503906zm-157.652344-14.851563v-350.457031c7.757813 6.816406 17.914063 10.960938 29.027344 10.960938h3.082031l-.078125 354.347656h-17.183594c-8.1875 0-14.847656-6.660156-14.847656-14.851563zm0 0"/><path d="m54.554688 35.035156c-4.148438 0-7.507813 3.359375-7.507813 7.507813 0 4.144531 3.359375 7.507812 7.507813 7.507812h48.046874c4.144532 0 7.507813-3.363281 7.507813-7.507812 0-4.148438-3.363281-7.507813-7.507813-7.507813zm0 0"/><path d="m247.742188 166.164062c4.144531 0 7.507812-3.363281 7.507812-7.507812v-29.03125c0-4.144531-3.363281-7.503906-7.507812-7.503906-6.898438 0-12.511719-5.613282-12.511719-12.515625 0-4.144531-3.363281-7.503907-7.507813-7.503907h-125.121094c-4.148437 0-7.507812 3.359376-7.507812 7.503907 0 6.902343-5.613281 12.515625-12.511719 12.515625-4.148437 0-7.507812 3.359375-7.507812 7.503906v58.058594c0 4.144531 3.359375 7.507812 7.507812 7.507812 6.898438 0 12.511719 5.613282 12.511719 12.511719 0 4.144531 3.359375 7.507813 7.507812 7.507813h89.894532c4.144531 0 7.507812-3.363282 7.507812-7.507813s-3.363281-7.507813-7.507812-7.507813h-83.429688c-2.597656-9.15625-9.824218-16.378906-18.976562-18.976562v-45.125c9.152344-2.597656 16.378906-9.824219 18.976562-18.980469h112.1875c2.597656 9.15625 9.824219 16.382813 18.980469 18.980469v22.5625c0 4.144531 3.363281 7.507812 7.507813 7.507812zm0 0"/><path d="m99.597656 265.257812h14.011719c4.148437 0 7.507813-3.359374 7.507813-7.507812 0-4.144531-3.359376-7.503906-7.507813-7.503906h-14.011719c-4.144531 0-7.507812 3.359375-7.507812 7.503906 0 4.148438 3.363281 7.507812 7.507812 7.507812zm0 0"/><path d="m151.648438 250.246094h-14.015626c-4.144531 0-7.503906 3.359375-7.503906 7.503906 0 4.148438 3.359375 7.507812 7.503906 7.507812h14.015626c4.144531 0 7.507812-3.359374 7.507812-7.507812 0-4.144531-3.359375-7.503906-7.507812-7.503906zm0 0"/><path d="m159.15625 294.789062c0-4.148437-3.363281-7.507812-7.507812-7.507812h-52.050782c-4.144531 0-7.507812 3.359375-7.507812 7.507812 0 4.144532 3.363281 7.507813 7.507812 7.507813h52.050782c4.148437 0 7.507812-3.363281 7.507812-7.507813zm0 0"/><path d="m99.597656 324.316406c-4.144531 0-7.507812 3.363282-7.507812 7.507813s3.363281 7.507812 7.507812 7.507812h38.035156c4.148438 0 7.507813-3.363281 7.507813-7.507812s-3.359375-7.507813-7.507813-7.507813zm0 0"/></svg>